<svg xmlns="http://www.w3.org/2000/svg" width="256" height="256" viewBox="0 0 256 256">
    <!-- Rounded white background -->
    <rect width="256" height="256" fill="#242938" rx="60"/>

    <circle r="80" cx="128" cy="137" fill="#ffffff" rx="60"/>

    <!-- Scaled-down Octocat (scaled to 70%) and centered -->
    <g transform="translate(38.4, 38.4) scale(0.7)">
        <path fill="#181717"
              d="M128 0C57.308 0 0 57.31 0 128c0 56.548 36.676 104.523 87.535 121.418 6.398 1.176 8.738-2.777 8.738-6.17 0-3.056-.12-13.18-.18-23.898-35.62 7.742-43.123-15.17-43.123-15.17-5.823-14.795-14.215-18.73-14.215-18.73-11.617-7.938.876-7.773.876-7.773 12.846.902 19.604 13.187 19.604 13.187 11.43 19.59 29.985 13.933 37.29 10.655 1.16-8.282 4.473-13.937 8.134-17.138-28.444-3.238-58.338-14.223-58.338-63.266 0-13.976 5-25.406 13.188-34.375-1.326-3.24-5.712-16.277 1.24-33.948 0 0 10.75-3.438 35.2 13.125 10.2-2.84 21.15-4.26 32.02-4.313 10.87.053 21.82 1.473 32.03 4.313 24.426-16.563 35.15-13.125 35.15-13.125 6.977 17.67 2.59 30.707 1.27 33.948 8.21 8.97 13.16 20.4 13.16 34.375 0 49.172-29.945 60-58.48 63.168 4.604 3.97 8.715 11.77 8.715 23.722 0 17.148-.16 30.95-.16 35.18 0 3.41 2.3 7.406 8.77 6.152C219.36 232.497 256 184.53 256 128 256 57.31 198.692 0 128 0Z"/>
    </g>
</svg>
