<svg xmlns="http://www.w3.org/2000/svg" class="ionicon s-ion-icon" width="30" height="30" style="transform: translateY(-2px);" viewBox="0 0 512 512">
  <title>Logo Instagram</title>
  <path fill="grey" stroke="grey" stroke-width="2" d="M349.33 69.33H162.67A93.41 93.41 0 0069.33 162.67v186.66A93.41 93.41 0 00162.67 442.7h186.66a93.41 93.41 0 0093.34-93.34V162.67a93.41 93.41 0 00-93.34-93.34zm61.67 280a61.72 61.72 0 01-61.67 61.67H162.67a61.72 61.72 0 01-61.67-61.67V162.67a61.72 61.72 0 0161.67-61.67h186.66a61.72 61.72 0 0161.67 61.67z"/>
  <path fill="grey" stroke="grey" stroke-width="2" d="M256 165.8A90.2 90.2 0 10346.2 256 90.18 90.18 0 00256 165.8zm0 148.7A58.5 58.5 0 11314.5 256 58.5 58.5 0 01256 314.5z"/>
  <circle fill="grey" stroke="grey" stroke-width="2" cx="396.8" cy="115.2" r="17.07"/>
</svg>