<svg fill="#6AAD3D" width="256" height="256" viewBox="0 0 256 256" xmlns="http://www.w3.org/2000/svg">
    <rect width="256" height="256" fill="#242938" rx="60"/>
    <circle r="50.5" cx="135" cy="130.5" fill="#ffffff"></circle>
    <g transform="translate(47,48) scale(2)">
        <path fill="#8bc34a"
              d="M76.416,35.011l-13.88-24.04c-1.78-3.0-5.09-5-8.66-5h-27.76c-3.57,0-6.88,1.91-8.66,5 l-13.88,24.04c-1.79,3.1-1.79,6.91,0,10l13.88,24.04c1.78,3.1,5.09,5,8.66,5h27.76c3.57,0,6.88-1.9,8.66-5l13.88-24.04 C78.206,41.921,78.206,38.111,76.416,35.011z M54.876,53.761c-3.58,3.97-8.49,6.31-13.83,6.59c-0.36,0.02-0.71,0.03-1.07,0.03 c-4.95,0-9.66-1.8-13.37-5.14c-8.2-7.38-8.87-20.06-1.48-28.27c0.57-0.63,1.18-1.23,1.83-1.78c1.25-1.08,3.14-0.94,4.23,0.32 c1.08,1.25,0.93,3.15-0.33,4.23c-0.44,0.38-0.87,0.8-1.27,1.25c-5.17,5.74-4.71,14.62,1.04,19.79c2.78,2.51,6.36,3.78,10.11,3.58 c3.74-0.2,7.18-1.84,9.68-4.62c5.17-5.74,4.7-14.62-1.04-19.79c-1.23-1.11-1.33-3.01-0.22-4.24c1.11-1.23,3-1.33,4.24-0.22 C61.596,32.871,62.256,45.551,54.876,53.761z M42.996,22.021v16.96c0,1.65-1.34,3-3,3c-0.82,0-1.58-0.34-2.12-0.88 c-0.54-0.54-0.88-1.3-0.88-2.12v-16.96c0-1.66,1.35-3,3-3C41.656,19.021,42.996,20.361,42.996,22.021z"></path>
    </g>
</svg>